# xmcd
#
# Track frame offsets: 
#        150
#        20226
#        48043
#        69347
#        86467
#        105279
#        132987
#        151856
#        178750
#        204678
#        227313
#        246483
#
# Disc length: 3665 seconds
#
# Revision: 0
# Processed by: cddbd v1.5.2PL0 Copyright (c) Steve Scherf et al.
# Submitted via: ExactAudioCopy v0.95b4
#
DISCID=940e4f0c
DTITLE=Bonerama - Shake It Baby
DYEAR=2013
DGENRE=Blues
TTITLE0=She's Hurting
TTITLE1=Close The Door
TTITLE2=Funky Brown Shorts
TTITLE3=I'm Lost
TTITLE4=Look Out Lonely
TTITLE5=Indian Red
TTITLE6=I Don't Wanna Play Guitar
TTITLE7=Hero
TTITLE8=What You See
TTITLE9=Swamped In
TTITLE10=Four Winds
TTITLE11=Manic Depression
EXTD=
EXTT0=
EXTT1=
EXTT2=
EXTT3=
EXTT4=
EXTT5=
EXTT6=
EXTT7=
EXTT8=
EXTT9=
EXTT10=
EXTT11=
PLAYORDER=
